<svg width="975" height="462" viewBox="0 0 975 462" fill="none" xmlns="http://www.w3.org/2000/svg">
<g filter="url(#filter0_d_2310_2)">
<path d="M85.5 337.5V107C85.5 105 100.5 104 130.5 104C160.833 104 176 104.833 176 106.5V373C176 397.667 165.667 417.167 145 431.5C124.667 446.167 99.1667 453.5 68.5 453.5C25.5 453.5 4 438.5 4 408.5C4 398.5 5.66666 390.167 9 383.5C12 383.833 16.1667 384 21.5 384C45.8333 384 62.5 380.167 71.5 372.5C80.8333 364.833 85.5 353.167 85.5 337.5ZM85.5 77.5V5.49997C85.5 2.16664 100.5 0.499974 130.5 0.499974C160.833 0.499974 176 1.49998 176 3.5V77C176 79.3333 160.833 80.5 130.5 80.5C100.5 80.5 85.5 79.5 85.5 77.5ZM252.742 173.5C243.409 156.833 238.742 143.333 238.742 133C238.742 122.333 241.576 115.5 247.242 112.5C266.242 104.167 292.242 100 325.242 100C358.576 100 382.076 107.833 395.742 123.5C409.409 138.833 416.242 161.667 416.242 192V271H433.242C438.909 271 443.242 274.333 446.242 281C449.576 287.667 451.242 296.833 451.242 308.5C451.242 320.167 448.242 331.667 442.242 343C436.576 354.333 428.742 360 418.742 360C400.742 360 386.242 355.167 375.242 345.5C370.242 341.5 366.409 336.667 363.742 331C348.409 350.333 324.576 360 292.242 360C267.909 360 247.409 351.333 230.742 334C214.076 316.667 205.742 296.167 205.742 272.5C205.742 218.167 238.242 191 303.242 191H330.742V186C330.742 177.333 329.242 171.833 326.242 169.5C323.576 166.833 317.076 165.5 306.742 165.5C294.076 165.5 276.076 168.167 252.742 173.5ZM292.742 265.5C292.742 272.833 294.742 278.5 298.742 282.5C302.742 286.167 307.742 288 313.742 288C320.076 288 325.742 285.5 330.742 280.5V242H316.742C300.742 242 292.742 249.833 292.742 265.5ZM460.043 106.5C459.043 103.833 474.543 102.5 506.543 102.5C538.876 102.5 555.043 103.333 555.043 105L591.043 275L618.043 107.5C619.043 104.5 635.543 103 667.543 103C699.876 103 715.543 104.333 714.543 107L644.043 351.5C641.71 354.833 621.876 356.5 584.543 356.5C547.21 356.5 527.21 354 524.543 349L460.043 106.5ZM771.785 173.5C762.452 156.833 757.785 143.333 757.785 133C757.785 122.333 760.618 115.5 766.285 112.5C785.285 104.167 811.285 100 844.285 100C877.618 100 901.118 107.833 914.785 123.5C928.452 138.833 935.285 161.667 935.285 192V271H952.285C957.952 271 962.285 274.333 965.285 281C968.618 287.667 970.285 296.833 970.285 308.5C970.285 320.167 967.285 331.667 961.285 343C955.619 354.333 947.785 360 937.785 360C919.785 360 905.285 355.167 894.285 345.5C889.285 341.5 885.452 336.667 882.785 331C867.452 350.333 843.618 360 811.285 360C786.952 360 766.452 351.333 749.785 334C733.118 316.667 724.785 296.167 724.785 272.5C724.785 218.167 757.285 191 822.285 191H849.785V186C849.785 177.333 848.285 171.833 845.285 169.5C842.618 166.833 836.118 165.5 825.785 165.5C813.118 165.5 795.118 168.167 771.785 173.5ZM811.785 265.5C811.785 272.833 813.785 278.5 817.785 282.5C821.785 286.167 826.785 288 832.785 288C839.118 288 844.785 285.5 849.785 280.5V242H835.785C819.785 242 811.785 249.833 811.785 265.5Z" fill="white"/>
</g>
<defs>
<filter id="filter0_d_2310_2" x="0" y="0.5" width="974.285" height="461" filterUnits="userSpaceOnUse" color-interpolation-filters="sRGB">
<feFlood flood-opacity="0" result="BackgroundImageFix"/>
<feColorMatrix in="SourceAlpha" type="matrix" values="0 0 0 0 0 0 0 0 0 0 0 0 0 0 0 0 0 0 127 0" result="hardAlpha"/>
<feOffset dy="4"/>
<feGaussianBlur stdDeviation="2"/>
<feComposite in2="hardAlpha" operator="out"/>
<feColorMatrix type="matrix" values="0 0 0 0 0 0 0 0 0 0 0 0 0 0 0 0 0 0 0.25 0"/>
<feBlend mode="normal" in2="BackgroundImageFix" result="effect1_dropShadow_2310_2"/>
<feBlend mode="normal" in="SourceGraphic" in2="effect1_dropShadow_2310_2" result="shape"/>
</filter>
</defs>
</svg>
