<svg width="1173" height="363" viewBox="0 0 1173 363" fill="none" xmlns="http://www.w3.org/2000/svg">
<g filter="url(#filter0_d_2317_7)">
<path d="M99.5 343C99.5 348.333 83.6667 351 52 351C20 351 4 348.5 4 343.5V17.5C4 5.83331 10.1667 -2.38419e-05 22.5 -2.38419e-05H118C205.667 -2.38419e-05 249.5 34.1666 249.5 102.5C249.5 123.167 245.5 142 237.5 159C229.5 175.667 218.167 189 203.5 199L266.5 304C263.833 312 255.167 321.167 240.5 331.5C220.5 345.833 204 353 191 353C178 353 168.333 348.333 162 339L115 229.5H99.5V343ZM99.5 88.5V163.5H102C133.667 163.5 149.5 150.333 149.5 124C149.5 112 146.333 103.167 140 97.5C134 91.5 124 88.5 110 88.5H99.5ZM485.422 336.5C464.422 348.833 437.422 355 404.422 355C371.422 355 343.589 343.833 320.922 321.5C298.255 298.833 286.922 267.667 286.922 228C286.922 188 297.755 155.833 319.422 131.5C341.422 107.167 369.089 95 402.422 95C435.755 95 461.422 103.5 479.422 120.5C497.755 137.5 506.922 158.167 506.922 182.5C506.922 236.5 475.922 263.5 413.922 263.5H379.422C379.422 273.5 382.089 280.5 387.422 284.5C393.089 288.167 401.255 290 411.922 290C435.255 290 457.422 284.667 478.422 274C478.755 273.667 480.255 276 482.922 281C490.922 295.333 494.922 307.5 494.922 317.5C494.922 327.167 491.755 333.5 485.422 336.5ZM422.922 192C422.922 178 416.089 171 402.422 171C396.089 171 390.589 173 385.922 177C381.589 180.667 379.422 186.167 379.422 193.5V209H406.422C417.422 209 422.922 203.333 422.922 192ZM571.086 168.5C561.753 151.833 557.086 138.333 557.086 128C557.086 117.333 559.919 110.5 565.586 107.5C584.586 99.1666 610.586 95 643.586 95C676.919 95 700.419 102.833 714.086 118.5C727.753 133.833 734.586 156.667 734.586 187V266H751.586C757.253 266 761.586 269.333 764.586 276C767.919 282.667 769.586 291.833 769.586 303.5C769.586 315.167 766.586 326.667 760.586 338C754.919 349.333 747.086 355 737.086 355C719.086 355 704.586 350.167 693.586 340.5C688.586 336.5 684.753 331.667 682.086 326C666.753 345.333 642.919 355 610.586 355C586.253 355 565.753 346.333 549.086 329C532.419 311.667 524.086 291.167 524.086 267.5C524.086 213.167 556.586 186 621.586 186H649.086V181C649.086 172.333 647.586 166.833 644.586 164.5C641.919 161.833 635.419 160.5 625.086 160.5C612.419 160.5 594.419 163.167 571.086 168.5ZM611.086 260.5C611.086 267.833 613.086 273.5 617.086 277.5C621.086 281.167 626.086 283 632.086 283C638.419 283 644.086 280.5 649.086 275.5V237H635.086C619.086 237 611.086 244.833 611.086 260.5ZM879.887 226C879.887 258.667 892.22 275 916.887 275C932.887 275 946.22 271.833 956.887 265.5C961.887 265.5 965.887 274.167 968.887 291.5C972.22 308.5 973.887 320.167 973.887 326.5C973.887 332.5 973.053 336.5 971.387 338.5C953.72 349.5 929.553 355 898.887 355C868.22 355 842.053 343.667 820.387 321C799.053 298 788.387 266.833 788.387 227.5C788.387 187.833 798.887 155.833 819.887 131.5C841.22 107.167 869.387 95 904.387 95C939.72 95 964.22 103.5 977.887 120.5C980.887 124.167 982.387 129.667 982.387 137C982.387 144 981.053 152.667 978.387 163C972.387 184.333 964.553 196.667 954.887 200C953.553 200.333 951.553 200.5 948.887 200.5C946.553 200.5 943.553 198.5 939.887 194.5C926.887 181.5 916.387 175 908.387 175C900.72 175 894.053 179 888.387 187C882.72 195 879.887 208 879.887 226ZM1124.8 347C1124.8 351 1110.8 353 1082.8 353C1049.47 351.667 1032.8 349.5 1032.8 346.5V169.5H1007.3C1000.63 169.5 997.301 158 997.301 135C997.301 129 997.801 121.667 998.801 113C1000.13 104.333 1002.63 100 1006.3 100H1032.8V56C1032.8 49.3333 1046.8 46 1074.8 46C1103.13 46 1117.3 48.6667 1117.3 54V86L1117.8 100H1160.3C1165.97 100 1168.8 111.667 1168.8 135C1168.8 158.333 1165.97 170 1160.3 170H1124.8V347Z" fill="white"/>
</g>
<defs>
<filter id="filter0_d_2317_7" x="0" y="0" width="1172.8" height="363" filterUnits="userSpaceOnUse" color-interpolation-filters="sRGB">
<feFlood flood-opacity="0" result="BackgroundImageFix"/>
<feColorMatrix in="SourceAlpha" type="matrix" values="0 0 0 0 0 0 0 0 0 0 0 0 0 0 0 0 0 0 127 0" result="hardAlpha"/>
<feOffset dy="4"/>
<feGaussianBlur stdDeviation="2"/>
<feComposite in2="hardAlpha" operator="out"/>
<feColorMatrix type="matrix" values="0 0 0 0 0 0 0 0 0 0 0 0 0 0 0 0 0 0 0.25 0"/>
<feBlend mode="normal" in2="BackgroundImageFix" result="effect1_dropShadow_2317_7"/>
<feBlend mode="normal" in="SourceGraphic" in2="effect1_dropShadow_2317_7" result="shape"/>
</filter>
</defs>
</svg>
