<svg width="2597" height="368" viewBox="0 0 2597 368" fill="none" xmlns="http://www.w3.org/2000/svg">
<g filter="url(#filter0_d_2317_9)">
<path d="M131.5 352C131.5 356 117.5 358 89.5 358C56.1667 356.667 39.5 354.5 39.5 351.5V174.5H14C7.33333 174.5 4 163 4 140C4 134 4.5 126.667 5.5 118C6.83333 109.333 9.33333 105 13 105H39.5V61C39.5 54.3333 53.5 51 81.5 51C109.833 51 124 53.6667 124 59V91L124.5 105H167C172.667 105 175.5 116.667 175.5 140C175.5 163.333 172.667 175 167 175H131.5V352ZM232.082 173.5C222.749 156.833 218.082 143.333 218.082 133C218.082 122.333 220.915 115.5 226.582 112.5C245.582 104.167 271.582 100 304.582 100C337.915 100 361.415 107.833 375.082 123.5C388.749 138.833 395.582 161.667 395.582 192V271H412.582C418.249 271 422.582 274.333 425.582 281C428.915 287.667 430.582 296.833 430.582 308.5C430.582 320.167 427.582 331.667 421.582 343C415.915 354.333 408.082 360 398.082 360C380.082 360 365.582 355.167 354.582 345.5C349.582 341.5 345.749 336.667 343.082 331C327.749 350.333 303.915 360 271.582 360C247.249 360 226.749 351.333 210.082 334C193.415 316.667 185.082 296.167 185.082 272.5C185.082 218.167 217.582 191 282.582 191H310.082V186C310.082 177.333 308.582 171.833 305.582 169.5C302.915 166.833 296.415 165.5 286.082 165.5C273.415 165.5 255.415 168.167 232.082 173.5ZM272.082 265.5C272.082 272.833 274.082 278.5 278.082 282.5C282.082 286.167 287.082 288 293.082 288C299.415 288 305.082 285.5 310.082 280.5V242H296.082C280.082 242 272.082 249.833 272.082 265.5ZM550.383 352C550.383 354.667 535.049 356 504.383 356C474.049 356 458.883 354.833 458.883 352.5V107C458.883 104.667 474.049 103.5 504.383 103.5C535.049 103.5 550.383 104.5 550.383 106.5V352ZM550.383 77C550.383 79.3333 535.049 80.5 504.383 80.5C474.049 80.5 458.883 79.5 458.883 77.5V5.49997C458.883 2.16664 474.049 0.499974 504.383 0.499974C535.049 0.499974 550.383 1.49998 550.383 3.5V77ZM686.602 351C686.602 354 669.602 355.5 635.602 355.5C608.935 355.167 595.602 353.833 595.602 351.5V11C595.602 5.99999 611.768 3.5 644.102 3.5C672.435 4.49998 686.602 6.16665 686.602 8.49999V351ZM991.332 107.5C991.332 104.5 1000.5 103 1018.83 103C1060.17 103 1080.5 104.333 1079.83 107L1030.83 350C1029.83 355.333 1011.33 358 975.332 358C939.332 358 920.832 355.333 919.832 350L899.332 238L873.832 350C872.832 355 853.665 357.5 816.332 357.5C779.332 357.5 760.332 354.5 759.332 348.5L714.832 105C713.832 103 728.165 102 757.832 102C787.165 102.333 801.832 103 801.832 104L824.832 273L866.332 106C866.999 104 877.999 103 899.332 103C920.665 103 931.665 104 932.332 106L973.332 271L991.332 107.5ZM1199.31 352C1199.31 354.667 1183.98 356 1153.31 356C1122.98 356 1107.81 354.833 1107.81 352.5V107C1107.81 104.667 1122.98 103.5 1153.31 103.5C1183.98 103.5 1199.31 104.5 1199.31 106.5V352ZM1199.31 77C1199.31 79.3333 1183.98 80.5 1153.31 80.5C1122.98 80.5 1107.81 79.5 1107.81 77.5V5.49997C1107.81 2.16664 1122.98 0.499974 1153.31 0.499974C1183.98 0.499974 1199.31 1.49998 1199.31 3.5V77ZM1349.03 352C1349.03 354.333 1337.03 355.5 1313.03 355.5C1279.69 354.5 1263.03 352.667 1263.03 350V188H1250.03C1241.36 188 1235.69 180.667 1233.03 166C1232.36 161.667 1232.03 157.333 1232.03 153C1232.03 142.667 1234.03 132.333 1238.03 122C1244.03 107.333 1253.36 100 1266.03 100C1278.69 100 1290.03 103 1300.03 109C1310.03 115 1316.69 121 1320.03 127C1341.03 109 1366.03 100 1395.03 100C1424.03 100 1445.03 107.833 1458.03 123.5C1471.03 139.167 1477.53 164.833 1477.53 200.5V350.5C1477.53 354.5 1463.19 356.5 1434.53 356.5C1406.19 356.5 1392.03 354.5 1392.03 350.5V206C1392.03 189.333 1386.19 181 1374.53 181C1371.19 181 1366.53 182.5 1360.53 185.5C1354.53 188.167 1350.69 190.167 1349.03 191.5V352ZM1646.42 8C1646.42 2.99998 1659.58 0.499974 1685.92 0.499974C1694.92 0.499974 1705.25 1.16664 1716.92 2.49998C1728.92 3.49999 1734.92 4.99999 1734.92 6.99998V270.5H1752.42C1760.75 270.5 1766.25 278 1768.92 293C1769.58 297.333 1769.92 303.333 1769.92 311C1769.92 318.333 1767.58 327.333 1762.92 338C1756.25 352.667 1745.58 360 1730.92 360C1719.92 360 1710.08 357.833 1701.42 353.5C1693.08 349.167 1687.42 344.667 1684.42 340L1679.92 333.5C1661.58 351.167 1638.58 360 1610.92 360C1583.25 360 1559.58 348.5 1539.92 325.5C1520.25 302.5 1510.42 270.5 1510.42 229.5C1510.42 188.167 1520.75 156.333 1541.42 134C1562.08 111.333 1587.92 100 1618.92 100C1627.92 100 1637.08 101 1646.42 103V8ZM1629.92 180C1611.25 180 1601.92 196.833 1601.92 230.5C1601.92 247.5 1604.58 259.833 1609.92 267.5C1615.25 274.833 1621.08 278.5 1627.42 278.5C1634.08 278.5 1640.42 275.667 1646.42 270V185C1640.75 181.667 1635.25 180 1629.92 180ZM2042.37 0.499974C2066.7 0.499974 2088.04 3.99998 2106.37 11C2125.04 17.6666 2134.37 26.8333 2134.37 38.5C2134.37 50.1666 2129.87 64.6666 2120.87 82C2112.2 99 2104.87 107.5 2098.87 107.5C2097.2 107.5 2095.2 106.667 2092.87 105C2090.87 103 2085.87 101 2077.87 99C2070.2 96.6666 2063.54 95.5 2057.87 95.5C2038.54 95.5 2022.87 102.333 2010.87 116C1999.2 129.667 1993.37 150.667 1993.37 179C1993.37 207 1999.37 227.833 2011.37 241.5C2023.7 255.167 2039.2 262 2057.87 262C2065.54 262 2074.04 261 2083.37 259C2093.04 256.667 2099.87 253.5 2103.87 249.5C2104.54 248.833 2105.87 248.5 2107.87 248.5C2109.87 248.5 2113.54 252.333 2118.87 260C2124.54 267.333 2129.7 277.167 2134.37 289.5C2139.04 301.5 2141.37 310.833 2141.37 317.5C2141.37 330.5 2131.37 340.833 2111.37 348.5C2091.37 356.167 2067.7 360 2040.37 360C1996.37 360 1960.2 344.5 1931.87 313.5C1903.54 282.5 1889.37 238.833 1889.37 182.5C1889.37 125.833 1903.87 81.3333 1932.87 49C1962.2 16.6666 1998.7 0.499974 2042.37 0.499974ZM2187.64 265C2214.64 281.333 2235.98 289.5 2251.64 289.5C2261.64 289.5 2266.64 286 2266.64 279C2266.64 274 2257.98 267.5 2240.64 259.5C2198.98 242.5 2178.14 214.667 2178.14 176C2178.14 151.333 2187.14 132.5 2205.14 119.5C2223.14 106.5 2244.64 100 2269.64 100C2294.98 100 2316.31 102.667 2333.64 108C2351.31 113.333 2360.14 120.333 2360.14 129C2360.14 136.333 2356.48 146 2349.14 158C2342.14 170 2337.31 176.5 2334.64 177.5C2320.31 169.5 2304.81 165.5 2288.14 165.5C2279.14 165.5 2274.64 168.667 2274.64 175C2274.64 179 2276.31 182.5 2279.64 185.5C2283.31 188.167 2289.81 191.667 2299.14 196C2308.48 200 2316.14 203.667 2322.14 207C2328.48 210.333 2335.48 215 2343.14 221C2359.14 233.667 2367.14 250.167 2367.14 270.5C2367.14 297.167 2358.31 318.833 2340.64 335.5C2322.98 351.833 2296.31 360 2260.64 360C2236.98 360 2215.48 356 2196.14 348C2176.81 340 2167.14 329 2167.14 315C2167.14 305.667 2169.31 295.833 2173.64 285.5C2178.31 275.167 2182.98 268.333 2187.64 265ZM2412.74 265C2439.74 281.333 2461.08 289.5 2476.74 289.5C2486.74 289.5 2491.74 286 2491.74 279C2491.74 274 2483.08 267.5 2465.74 259.5C2424.08 242.5 2403.24 214.667 2403.24 176C2403.24 151.333 2412.24 132.5 2430.24 119.5C2448.24 106.5 2469.74 100 2494.74 100C2520.08 100 2541.41 102.667 2558.74 108C2576.41 113.333 2585.24 120.333 2585.24 129C2585.24 136.333 2581.58 146 2574.24 158C2567.24 170 2562.41 176.5 2559.74 177.5C2545.41 169.5 2529.91 165.5 2513.24 165.5C2504.24 165.5 2499.74 168.667 2499.74 175C2499.74 179 2501.41 182.5 2504.74 185.5C2508.41 188.167 2514.91 191.667 2524.24 196C2533.58 200 2541.24 203.667 2547.24 207C2553.58 210.333 2560.58 215 2568.24 221C2584.24 233.667 2592.24 250.167 2592.24 270.5C2592.24 297.167 2583.41 318.833 2565.74 335.5C2548.08 351.833 2521.41 360 2485.74 360C2462.08 360 2440.58 356 2421.24 348C2401.91 340 2392.24 329 2392.24 315C2392.24 305.667 2394.41 295.833 2398.74 285.5C2403.41 275.167 2408.08 268.333 2412.74 265Z" fill="white"/>
</g>
<defs>
<filter id="filter0_d_2317_9" x="0" y="0.5" width="2596.24" height="367.5" filterUnits="userSpaceOnUse" color-interpolation-filters="sRGB">
<feFlood flood-opacity="0" result="BackgroundImageFix"/>
<feColorMatrix in="SourceAlpha" type="matrix" values="0 0 0 0 0 0 0 0 0 0 0 0 0 0 0 0 0 0 127 0" result="hardAlpha"/>
<feOffset dy="4"/>
<feGaussianBlur stdDeviation="2"/>
<feComposite in2="hardAlpha" operator="out"/>
<feColorMatrix type="matrix" values="0 0 0 0 0 0 0 0 0 0 0 0 0 0 0 0 0 0 0.25 0"/>
<feBlend mode="normal" in2="BackgroundImageFix" result="effect1_dropShadow_2317_9"/>
<feBlend mode="normal" in="SourceGraphic" in2="effect1_dropShadow_2317_9" result="shape"/>
</filter>
</defs>
</svg>
