<svg width="822" height="368" viewBox="0 0 822 368" fill="none" xmlns="http://www.w3.org/2000/svg">
<g filter="url(#filter0_d_2317_8)">
<path d="M6 106.5C5 103.833 20.5 102.5 52.5 102.5C84.8333 102.5 101 103.333 101 105L137 275L164 107.5C165 104.5 181.5 103 213.5 103C245.833 103 261.5 104.333 260.5 107L190 351.5C187.667 354.833 167.833 356.5 130.5 356.5C93.1667 356.5 73.1667 354 70.5 349L6 106.5ZM377.742 352C377.742 354.667 362.409 356 331.742 356C301.409 356 286.242 354.833 286.242 352.5V107C286.242 104.667 301.409 103.5 331.742 103.5C362.409 103.5 377.742 104.5 377.742 106.5V352ZM377.742 77C377.742 79.3333 362.409 80.5 331.742 80.5C301.409 80.5 286.242 79.5 286.242 77.5V5.49997C286.242 2.16664 301.409 0.499974 331.742 0.499974C362.409 0.499974 377.742 1.49998 377.742 3.5V77ZM537.961 352C537.961 356 523.961 358 495.961 358C462.628 356.667 445.961 354.5 445.961 351.5V174.5H420.461C413.794 174.5 410.461 163 410.461 140C410.461 134 410.961 126.667 411.961 118C413.294 109.333 415.794 105 419.461 105H445.961V61C445.961 54.3333 459.961 51 487.961 51C516.294 51 530.461 53.6667 530.461 59V91L530.961 105H573.461C579.128 105 581.961 116.667 581.961 140C581.961 163.333 579.128 175 573.461 175H537.961V352ZM796.043 341.5C775.043 353.833 748.043 360 715.043 360C682.043 360 654.21 348.833 631.543 326.5C608.876 303.833 597.543 272.667 597.543 233C597.543 193 608.376 160.833 630.043 136.5C652.043 112.167 679.71 100 713.043 100C746.376 100 772.043 108.5 790.043 125.5C808.376 142.5 817.543 163.167 817.543 187.5C817.543 241.5 786.543 268.5 724.543 268.5H690.043C690.043 278.5 692.71 285.5 698.043 289.5C703.71 293.167 711.876 295 722.543 295C745.876 295 768.043 289.667 789.043 279C789.376 278.667 790.876 281 793.543 286C801.543 300.333 805.543 312.5 805.543 322.5C805.543 332.167 802.376 338.5 796.043 341.5ZM733.543 197C733.543 183 726.71 176 713.043 176C706.71 176 701.21 178 696.543 182C692.21 185.667 690.043 191.167 690.043 198.5V214H717.043C728.043 214 733.543 208.333 733.543 197Z" fill="white"/>
</g>
<defs>
<filter id="filter0_d_2317_8" x="0.5" y="0.5" width="821.043" height="367.5" filterUnits="userSpaceOnUse" color-interpolation-filters="sRGB">
<feFlood flood-opacity="0" result="BackgroundImageFix"/>
<feColorMatrix in="SourceAlpha" type="matrix" values="0 0 0 0 0 0 0 0 0 0 0 0 0 0 0 0 0 0 127 0" result="hardAlpha"/>
<feOffset dy="4"/>
<feGaussianBlur stdDeviation="2"/>
<feComposite in2="hardAlpha" operator="out"/>
<feColorMatrix type="matrix" values="0 0 0 0 0 0 0 0 0 0 0 0 0 0 0 0 0 0 0.25 0"/>
<feBlend mode="normal" in2="BackgroundImageFix" result="effect1_dropShadow_2317_8"/>
<feBlend mode="normal" in="SourceGraphic" in2="effect1_dropShadow_2317_8" result="shape"/>
</filter>
</defs>
</svg>
